<svg width="258" height="92" viewBox="0 0 258 92" fill="none" xmlns="http://www.w3.org/2000/svg">
<path d="M44.2727 53H36.0227V29.7273H44.3409C46.6818 29.7273 48.697 30.1932 50.3864 31.125C52.0758 32.0492 53.375 33.3788 54.2841 35.1136C55.2008 36.8485 55.6591 38.9242 55.6591 41.3409C55.6591 43.7652 55.2008 45.8485 54.2841 47.5909C53.375 49.3333 52.0682 50.6705 50.3636 51.6023C48.6667 52.5341 46.6364 53 44.2727 53ZM40.9432 48.7841H44.0682C45.5227 48.7841 46.7462 48.5265 47.7386 48.0114C48.7386 47.4886 49.4886 46.6818 49.9886 45.5909C50.4962 44.4924 50.75 43.0758 50.75 41.3409C50.75 39.6212 50.4962 38.2159 49.9886 37.125C49.4886 36.0341 48.7424 35.2311 47.75 34.7159C46.7576 34.2008 45.5341 33.9432 44.0795 33.9432H40.9432V48.7841ZM80.6903 41.3636C80.6903 43.9015 80.2093 46.0606 79.2472 47.8409C78.2926 49.6212 76.9896 50.9811 75.3381 51.9205C73.6941 52.8523 71.8456 53.3182 69.7926 53.3182C67.7244 53.3182 65.8684 52.8485 64.2244 51.9091C62.5805 50.9697 61.2813 49.6098 60.3267 47.8295C59.3722 46.0492 58.8949 43.8939 58.8949 41.3636C58.8949 38.8258 59.3722 36.6667 60.3267 34.8864C61.2813 33.1061 62.5805 31.75 64.2244 30.8182C65.8684 29.8788 67.7244 29.4091 69.7926 29.4091C71.8456 29.4091 73.6941 29.8788 75.3381 30.8182C76.9896 31.75 78.2926 33.1061 79.2472 34.8864C80.2093 36.6667 80.6903 38.8258 80.6903 41.3636ZM75.7017 41.3636C75.7017 39.7197 75.4555 38.3333 74.9631 37.2045C74.4782 36.0758 73.7926 35.2197 72.9062 34.6364C72.0199 34.053 70.982 33.7614 69.7926 33.7614C68.6032 33.7614 67.5653 34.053 66.679 34.6364C65.7926 35.2197 65.1032 36.0758 64.6108 37.2045C64.1259 38.3333 63.8835 39.7197 63.8835 41.3636C63.8835 43.0076 64.1259 44.3939 64.6108 45.5227C65.1032 46.6515 65.7926 47.5076 66.679 48.0909C67.5653 48.6742 68.6032 48.9659 69.7926 48.9659C70.982 48.9659 72.0199 48.6742 72.9062 48.0909C73.7926 47.5076 74.4782 46.6515 74.9631 45.5227C75.4555 44.3939 75.7017 43.0076 75.7017 41.3636ZM84.3352 53V29.7273H100.017V33.7841H89.2557V39.3295H99.2102V43.3864H89.2557V48.9432H100.062V53H84.3352Z" fill="#4EA8DE"/>
<path d="M112.179 53H103.929V29.7273H112.247C114.588 29.7273 116.603 30.1932 118.293 31.125C119.982 32.0492 121.281 33.3788 122.19 35.1136C123.107 36.8485 123.565 38.9242 123.565 41.3409C123.565 43.7652 123.107 45.8485 122.19 47.5909C121.281 49.3333 119.974 50.6705 118.27 51.6023C116.573 52.5341 114.543 53 112.179 53ZM108.849 48.7841H111.974C113.429 48.7841 114.652 48.5265 115.645 48.0114C116.645 47.4886 117.395 46.6818 117.895 45.5909C118.402 44.4924 118.656 43.0758 118.656 41.3409C118.656 39.6212 118.402 38.2159 117.895 37.125C117.395 36.0341 116.649 35.2311 115.656 34.7159C114.664 34.2008 113.44 33.9432 111.986 33.9432H108.849V48.7841ZM127.21 53V29.7273H136.392C138.15 29.7273 139.65 30.0417 140.892 30.6705C142.142 31.2917 143.093 32.1742 143.744 33.3182C144.403 34.4545 144.733 35.7917 144.733 37.3295C144.733 38.875 144.4 40.2045 143.733 41.3182C143.066 42.4242 142.1 43.2727 140.835 43.8636C139.578 44.4545 138.055 44.75 136.267 44.75H130.119V40.7955H135.472C136.411 40.7955 137.191 40.6667 137.812 40.4091C138.434 40.1515 138.896 39.7652 139.199 39.25C139.509 38.7348 139.665 38.0947 139.665 37.3295C139.665 36.5568 139.509 35.9053 139.199 35.375C138.896 34.8447 138.43 34.4432 137.801 34.1705C137.18 33.8902 136.396 33.75 135.449 33.75H132.131V53H127.21ZM139.778 42.4091L145.562 53H140.131L134.472 42.4091H139.778ZM152.222 53H146.949L154.983 29.7273H161.324L169.347 53H164.074L158.244 35.0455H158.062L152.222 53ZM151.892 43.8523H164.347V47.6932H151.892V43.8523ZM186.486 37.25C186.327 36.697 186.103 36.2083 185.815 35.7841C185.527 35.3523 185.175 34.9886 184.759 34.6932C184.349 34.3902 183.88 34.1591 183.349 34C182.827 33.8409 182.247 33.7614 181.611 33.7614C180.421 33.7614 179.376 34.0568 178.474 34.6477C177.58 35.2386 176.884 36.0985 176.384 37.2273C175.884 38.3485 175.634 39.7197 175.634 41.3409C175.634 42.9621 175.88 44.3409 176.372 45.4773C176.865 46.6136 177.562 47.4811 178.463 48.0795C179.365 48.6705 180.429 48.9659 181.656 48.9659C182.77 48.9659 183.721 48.7689 184.509 48.375C185.304 47.9735 185.91 47.4091 186.327 46.6818C186.751 45.9545 186.963 45.0947 186.963 44.1023L187.963 44.25H181.963V40.5455H191.702V43.4773C191.702 45.5227 191.27 47.2803 190.406 48.75C189.543 50.2121 188.353 51.3409 186.838 52.1364C185.323 52.9242 183.588 53.3182 181.634 53.3182C179.452 53.3182 177.535 52.8371 175.884 51.875C174.232 50.9053 172.944 49.5303 172.02 47.75C171.103 45.9621 170.645 43.8409 170.645 41.3864C170.645 39.5 170.918 37.8182 171.463 36.3409C172.016 34.8561 172.789 33.5985 173.781 32.5682C174.774 31.5379 175.929 30.7538 177.247 30.2159C178.565 29.678 179.993 29.4091 181.531 29.4091C182.849 29.4091 184.077 29.6023 185.213 29.9886C186.349 30.3674 187.357 30.9053 188.236 31.6023C189.122 32.2992 189.846 33.1288 190.406 34.0909C190.967 35.0455 191.327 36.0985 191.486 37.25H186.486ZM198.69 53H193.418L201.452 29.7273H207.793L215.815 53H210.543L204.713 35.0455H204.531L198.69 53ZM198.361 43.8523H210.815V47.6932H198.361V43.8523Z" fill="#E1C76B"/>
<path d="M34 59.3636H101.915V61.5455H34V59.3636Z" fill="#4EA8DE"/>
<path d="M101.906 59.3636H216.588V61.5455H101.906V59.3636Z" fill="#E1C76B"/>
<path d="M223 46H258" stroke="#E1C76B" stroke-width="8"/>
<path d="M6 46L39.5 3M6 46L39.5 89M6 46H30" stroke="#4EA8DE" stroke-width="8"/>
</svg>
